<?xml version="1.0" encoding="UTF-8"?>
<svg version="1.1" xmlns="http://www.w3.org/2000/svg" width="600" height="600">
<path d="M0 0 C1.22008759 -0.00570007 2.44017517 -0.01140015 3.69723511 -0.01727295 C6.27747746 -0.02668892 8.85773165 -0.03324334 11.43798828 -0.03710938 C15.30654153 -0.04672427 19.17454194 -0.07774356 23.04296875 -0.109375 C42.99763358 -0.19551762 62.28631559 1.42230551 81.7421875 5.953125 C83.42380981 6.33827271 83.42380981 6.33827271 85.1394043 6.73120117 C104.19679772 11.20460979 122.32897939 17.32644306 140.2421875 25.203125 C141.45551758 25.73244629 141.45551758 25.73244629 142.69335938 26.27246094 C166.80116091 36.900099 189.1921066 51.13307055 209.2421875 68.203125 C210.27906354 69.05576411 211.31687058 69.90727195 212.35546875 70.7578125 C226.533633 82.4912508 240.10771251 95.51852755 251.2421875 110.203125 C252.25115067 111.48551992 253.26170055 112.76666731 254.2734375 114.046875 C291.54952563 161.54978051 316.1861862 221.44524412 316.48046875 282.296875 C316.48658204 283.3795591 316.48658204 283.3795591 316.49281883 284.4841156 C316.51359258 288.31899718 316.52792084 292.15384411 316.53735352 295.98876953 C316.54612982 299.1032315 316.56681487 302.21723507 316.59887695 305.33154297 C316.90594412 335.8256337 312.7079882 363.00719204 303.14746094 392.0234375 C301.4777772 397.12841016 299.9625503 402.20223807 298.72265625 407.4296875 C297.48531599 412.52317647 295.82354636 417.14454863 293.6171875 421.890625 C293.27308838 422.64609619 292.92898926 423.40156738 292.57446289 424.17993164 C280.82287817 449.61924664 280.82287817 449.61924664 273.2421875 459.203125 C272.2521875 459.533125 271.2621875 459.863125 270.2421875 460.203125 C269.57000575 461.86757504 268.90506802 463.53494886 268.2421875 465.203125 C266.40038167 468.11919409 264.38239884 470.90502581 262.3671875 473.703125 C261.83738281 474.44949219 261.30757812 475.19585937 260.76171875 475.96484375 C258.61276167 478.97764958 256.46055584 481.9375635 254.109375 484.796875 C252.22195523 487.22919838 250.7726268 489.77188929 249.27880859 492.45800781 C239.31575076 509.23048482 221.82969337 523.82833704 206.2421875 535.203125 C205.39841553 535.83009277 205.39841553 535.83009277 204.53759766 536.46972656 C195.42478938 543.23746049 185.93264273 549.30179475 176.2421875 555.203125 C175.60635742 555.59387207 174.97052734 555.98461914 174.31542969 556.38720703 C165.14717518 562.02102614 155.87069283 567.39117031 146.2421875 572.203125 C145.54125977 572.55342773 144.84033203 572.90373047 144.11816406 573.26464844 C124.54464253 582.88289544 103.55979363 589.83556883 82.3046875 594.640625 C80.83696899 594.97453247 80.83696899 594.97453247 79.33959961 595.31518555 C60.06444801 599.38921246 40.93288781 600.71784399 21.26489258 600.64916992 C17.57511231 600.64067204 13.88689418 600.66954439 10.19726562 600.70117188 C-56.33994496 600.89702799 -128.7544902 575.88549349 -178.7578125 531.203125 C-179.67175781 530.41035156 -180.58570313 529.61757813 -181.52734375 528.80078125 C-186.05039011 524.83379156 -190.16888596 520.76511538 -194.046875 516.16796875 C-195.86558919 514.07935406 -197.78277518 512.14410995 -199.7578125 510.203125 C-203.00390227 507.00081679 -206.0475561 503.68702993 -209.015625 500.2265625 C-210.2435505 498.80040687 -211.49022585 497.39028979 -212.75 495.9921875 C-213.39195312 495.27804687 -214.03390625 494.56390625 -214.6953125 493.828125 C-215.57509766 492.85746094 -215.57509766 492.85746094 -216.47265625 491.8671875 C-217.7578125 490.203125 -217.7578125 490.203125 -217.7578125 488.203125 C-218.33660156 487.96207031 -218.91539062 487.72101563 -219.51171875 487.47265625 C-230.4590626 481.28502712 -237.56260647 464.63290412 -243.7578125 454.203125 C-244.21285156 453.44177246 -244.66789062 452.68041992 -245.13671875 451.89599609 C-249.57571233 444.42470835 -253.43264139 437.09685049 -256.37890625 428.89453125 C-258.20298493 424.01137444 -260.25682579 419.23912867 -262.3203125 414.453125 C-262.69671875 413.57760986 -263.073125 412.70209473 -263.4609375 411.80004883 C-265.59848655 406.83307939 -265.59848655 406.83307939 -267.81982422 401.90332031 C-270.2950568 396.52953747 -272.16135182 391.14794613 -273.7578125 385.453125 C-274.01344971 384.54409424 -274.26908691 383.63506348 -274.5324707 382.69848633 C-281.73980915 356.3698228 -284.29224234 329.61736723 -284.20385742 302.38647461 C-284.19534305 298.40490978 -284.22425493 294.42478415 -284.25585938 290.44335938 C-284.3766595 246.28503671 -273.34269397 203.69240398 -253.7578125 164.203125 C-253.36062012 163.40165039 -252.96342773 162.60017578 -252.55419922 161.77441406 C-248.55310746 153.7927227 -244.18359342 146.05857353 -239.5078125 138.453125 C-239.10747803 137.79699219 -238.70714355 137.14085937 -238.29467773 136.46484375 C-235.82452316 132.53963855 -233.12914617 129.42596599 -229.7578125 126.203125 C-226.78228527 122.63249233 -224.18073508 119.00365703 -222.0078125 114.890625 C-217.88690681 107.32693734 -210.81327366 101.22363401 -204.7578125 95.203125 C-203.43688735 93.87170129 -202.11663773 92.53960721 -200.796875 91.20703125 C-199.325578 89.72650569 -197.85422244 88.24603832 -196.3828125 86.765625 C-195.65320313 86.02763672 -194.92359375 85.28964844 -194.171875 84.52929688 C-190.34788045 80.68823093 -186.47169104 77.01948497 -182.3125 73.54443359 C-180.92466414 72.34707646 -179.62629069 71.04780095 -178.34375 69.73828125 C-174.92103904 66.38278364 -171.19562314 63.53689462 -167.3828125 60.640625 C-166.65320313 60.07666016 -165.92359375 59.51269531 -165.171875 58.93164062 C-161.42385985 56.07043263 -157.69416314 53.47917927 -153.55859375 51.21606445 C-150.73205891 49.6261386 -148.03037102 47.84767172 -145.30395508 46.09326172 C-107.61566147 21.88318511 -66.22760352 7.02519172 -21.7578125 1.203125 C-20.45094482 1.03111572 -19.14407715 0.85910645 -17.79760742 0.68188477 C-11.87111935 0.03346085 -5.95659996 0.02201145 0 0 Z " fill="#FCFDFE" transform="translate(283.7578125,-0.203125)"/>
<path d="M0 0 C7.29548232 0.1387148 14.59028438 0.1646102 21.88689751 0.18612987 C34.88964365 0.22731496 47.89007468 0.35263826 60.89156971 0.5338795 C73.49171555 0.70933893 86.09122375 0.84330037 98.69235096 0.92352794 C99.47418402 0.92851968 100.25601708 0.93351143 101.06154205 0.93865444 C104.98530356 0.96345719 108.90906945 0.98746596 112.83283828 1.0110806 C145.1836042 1.20679907 177.53152316 1.54031791 209.88009511 1.96722911 C209.90008837 4.33380827 209.91457182 6.70021481 209.92599354 9.06683848 C209.93877339 11.04363597 209.93877339 11.04363597 209.95181141 13.06036876 C209.84954476 18.63150797 209.08433961 23.98688912 208.13009511 29.46722911 C207.85504139 31.09628184 207.85504139 31.09628184 207.57443104 32.75824473 C205.18036958 46.51485864 201.14982091 59.54140803 196.78536854 72.78754161 C195.11568481 77.89251427 193.6004579 82.96634218 192.36056386 88.19379161 C191.12322359 93.28728058 189.46145396 97.90865274 187.25509511 102.65472911 C186.91099598 103.4102003 186.56689686 104.16567149 186.2123705 104.94403575 C174.46078578 130.38335075 174.46078578 130.38335075 166.88009511 139.96722911 C165.89009511 140.29722911 164.90009511 140.62722911 163.88009511 140.96722911 C163.20791336 142.63167915 162.54297563 144.29905297 161.88009511 145.96722911 C160.03828927 148.8832982 158.02030644 151.66912992 156.00509511 154.46722911 C155.21038807 155.58677989 155.21038807 155.58677989 154.39962636 156.72894786 C152.25066928 159.74175369 150.09846345 162.70166761 147.74728261 165.56097911 C145.85986284 167.99330249 144.41053441 170.5359934 142.9167162 173.22211192 C132.95365837 189.99458893 115.46760097 204.59244115 99.88009511 215.96722911 C99.03632313 216.59419688 99.03632313 216.59419688 98.17550526 217.23383067 C89.06269699 224.0015646 79.57055033 230.06589886 69.88009511 235.96722911 C69.24426503 236.35797618 68.60843495 236.74872325 67.95333729 237.15131114 C58.78508278 242.78513025 49.50860043 248.15527442 39.88009511 252.96722911 C39.17916737 253.31753184 38.47823964 253.66783458 37.75607167 254.02875255 C18.18255014 263.64699955 -2.80229877 270.59967294 -24.05740489 275.40472911 C-25.5251234 275.73863658 -25.5251234 275.73863658 -27.02249279 276.07928966 C-46.29764438 280.15331657 -65.42920458 281.4819481 -85.09719982 281.41327403 C-88.78698008 281.40477615 -92.47519821 281.4336485 -96.16482677 281.46527598 C-162.70203736 281.6611321 -235.1165826 256.6495976 -285.11990489 211.96722911 C-286.03385021 211.17445567 -286.94779552 210.38168223 -287.88943614 209.56488536 C-292.41248251 205.59789567 -296.53097836 201.52921949 -300.40896739 196.93207286 C-302.22768158 194.84345817 -304.14486758 192.90821406 -306.11990489 190.96722911 C-309.36599467 187.7649209 -312.40964849 184.45113404 -315.37771739 180.99066661 C-316.6056429 179.56451098 -317.85231825 178.1543939 -319.11209239 176.75629161 C-319.75404552 176.04215098 -320.39599864 175.32801036 -321.05740489 174.59222911 C-321.64392833 173.94511973 -322.23045177 173.29801036 -322.83474864 172.63129161 C-324.11990489 170.96722911 -324.11990489 170.96722911 -324.11990489 168.96722911 C-324.69869396 168.72617442 -325.27748302 168.48511973 -325.87381114 168.23676036 C-336.82115499 162.04913123 -343.92469886 145.39700822 -350.11990489 134.96722911 C-350.57494396 134.20587657 -351.02998302 133.44452403 -351.49881114 132.6601002 C-355.93780473 125.18881246 -359.79473379 117.8609546 -362.74099864 109.65863536 C-364.56507733 104.77547855 -366.61891818 100.00323277 -368.68240489 95.21722911 C-369.24701427 93.9039564 -369.24701427 93.9039564 -369.82302989 92.56415294 C-371.96057894 87.5971835 -371.96057894 87.5971835 -374.18191661 82.66742442 C-376.65792073 77.29196654 -378.51344024 71.91046922 -380.11990489 66.21722911 C-380.35451427 65.43219005 -380.58912364 64.64715098 -380.83084239 63.83832286 C-382.69264944 57.3219982 -383.97094535 50.72667414 -385.21756114 44.0717213 C-385.40129283 43.09867045 -385.58502452 42.12561961 -385.77432384 41.12308238 C-386.22442597 38.73809 -386.6729085 36.35280517 -387.11990489 33.96722911 C-386.26594609 33.97089012 -386.26594609 33.97089012 -385.39473559 33.97462509 C-351.56562683 34.11811857 -317.73699213 34.19837788 -283.90758235 34.19783079 C-279.83512726 34.19781899 -275.7626724 34.19832934 -271.69021739 34.1991627 C-270.87955039 34.19931981 -270.06888339 34.19947692 -269.23365072 34.1996388 C-256.15035128 34.2034162 -243.067529 34.24938051 -229.98439002 34.31125725 C-216.53475215 34.37391617 -203.08561122 34.39049369 -189.63584854 34.365324 C-181.35293245 34.35124494 -173.07167462 34.37203989 -164.78901181 34.43913127 C-159.08985721 34.48183309 -153.39177556 34.47930602 -147.69258219 34.44307585 C-144.41576355 34.423523 -141.14254873 34.42887913 -137.86591281 34.47507022 C-119.4746491 34.71801289 -107.3927643 31.19605829 -92.11990489 20.96722911 C-62.01809458 1.22741003 -35.47183951 -0.69316556 0 0 Z " fill="#249201" transform="translate(390.11990489438176,319.03277089074254)"/>
<path d="M0 0 C3.79765821 0.00315058 7.59452782 -0.02034377 11.39208984 -0.0456543 C31.19505809 -0.09801242 50.39307677 1.56938183 69.70068359 6.06567383 C70.82176514 6.32243896 71.94284668 6.5792041 73.09790039 6.84375 C92.15529381 11.31715862 110.28747548 17.43899189 128.20068359 25.31567383 C129.41401367 25.84499512 129.41401367 25.84499512 130.65185547 26.38500977 C154.759657 37.01264783 177.15060269 51.24561938 197.20068359 68.31567383 C198.23755963 69.16831294 199.27536668 70.01982078 200.31396484 70.87036133 C214.49212909 82.60379963 228.0662086 95.63107638 239.20068359 110.31567383 C240.20964676 111.59806875 241.22019664 112.87921613 242.23193359 114.15942383 C282.26492795 165.17560186 304.20068359 226.46132134 304.20068359 291.31567383 C223.02068359 291.31567383 141.84068359 291.31567383 58.20068359 291.31567383 C59.92072429 287.87559244 61.78671409 284.67228967 63.76318359 281.37817383 C69.18672661 272.13627337 73.14353791 262.21204945 77.20068359 252.31567383 C76.87068359 251.98567383 76.54068359 251.65567383 76.20068359 251.31567383 C65.51690137 257.65964762 54.89654914 264.0848342 44.40917969 270.74902344 C38.63540766 274.416405 32.8334072 278.03499866 27.01318359 281.62817383 C19.49689493 286.26911308 11.99929639 290.93872052 4.51318359 295.62817383 C-1.84618478 299.61126392 -8.21403399 303.57958079 -14.60791016 307.50708008 C-15.17400497 307.85497086 -15.74009979 308.20286163 -16.323349 308.56129456 C-19.13117184 310.28584476 -21.94157386 312.00600259 -24.75512695 313.72119141 C-29.30145933 316.50102404 -33.82226991 319.27994198 -38.19775391 322.32348633 C-39.13627197 322.96858154 -39.13627197 322.96858154 -40.09375 323.62670898 C-41.63474202 324.70094762 -43.15584496 325.80358049 -44.67431641 326.90942383 C-49.06668318 328.88598888 -53.05691013 328.61090268 -57.79931641 328.31567383 C-60.77046572 308.48235002 -60.77046572 308.48235002 -56.32128906 302.24291992 C-52.00955038 298.48048946 -46.83278572 296.16176757 -41.68652344 293.74682617 C-36.6328871 291.24180197 -31.97476854 288.11434457 -27.23681641 285.06567383 C-25.19613253 283.78598131 -23.15312196 282.50999227 -21.10791016 281.23754883 C-20.0739209 280.59366211 -19.03993164 279.94977539 -17.97460938 279.28637695 C-11.50181135 275.2691214 -5.00782352 271.28630372 1.48364258 267.29931641 C12.76178391 260.36714342 23.98347479 253.34586509 35.20068359 246.31567383 C38.16551934 244.45751439 41.13051401 242.59978164 44.10058594 240.75 C46.08173804 239.5035292 48.05102249 238.23799093 50.0078125 236.95361328 C55.36523372 233.48032876 60.56697689 230.66130299 66.48974609 228.25708008 C77.23795565 223.60170214 77.23795565 223.60170214 85.20068359 215.31567383 C89.05051099 202.47328128 86.73911 187.40231169 85.20068359 174.31567383 C74.63792409 180.58778496 64.13666961 186.93712026 53.77172852 193.53149414 C46.95550626 197.85991705 40.08333298 202.09383737 33.20068359 206.31567383 C25.67059524 210.9360396 18.15786964 215.57847362 10.70068359 220.31567383 C3.24349419 225.05287617 -4.26935254 229.69510063 -11.79931641 234.31567383 C-23.70482102 241.6226047 -35.56627992 248.9979777 -47.30322266 256.57348633 C-48.29193359 257.2102832 -49.28064453 257.84708008 -50.29931641 258.50317383 C-51.11400391 259.03297852 -51.92869141 259.5627832 -52.76806641 260.10864258 C-54.79931641 261.31567383 -54.79931641 261.31567383 -57.79931641 262.31567383 C-61.26091306 237.05570106 -61.26091306 237.05570106 -55.99462891 229.84448242 C-50.93098449 225.64715596 -44.93563601 223.22577391 -38.90820312 220.71411133 C-33.84649468 218.43725677 -29.34765007 215.38223494 -24.73681641 212.31567383 C-22.90182769 211.13378639 -21.06458852 209.95538559 -19.22509766 208.78051758 C-17.87279053 207.91402588 -17.87279053 207.91402588 -16.49316406 207.0300293 C-12.1612638 204.27322273 -7.79467039 201.5734663 -3.42431641 198.87817383 C4.1335296 194.21623168 11.67374986 189.52737791 19.20068359 184.81567383 C27.52729064 179.60473078 35.86850731 174.41841458 44.2253418 169.25610352 C52.35738427 164.22859926 60.46163854 159.15689884 68.56005859 154.07543945 C70.0121875 153.16568359 70.0121875 153.16568359 71.49365234 152.23754883 C72.78565552 151.42688965 72.78565552 151.42688965 74.10375977 150.59985352 C76.20068359 149.31567383 76.20068359 149.31567383 78.20068359 148.31567383 C76.81890024 140.35850765 74.11188941 133.40993106 70.70068359 126.12817383 C70.30888916 125.27827881 69.91709473 124.42838379 69.51342773 123.55273438 C69.13178467 122.75907471 68.7501416 121.96541504 68.35693359 121.14770508 C68.0146875 120.43332275 67.67244141 119.71894043 67.31982422 118.98291016 C66.22443852 116.98390577 66.22443852 116.98390577 63.20068359 116.31567383 C60.64217261 117.487711 60.64217261 117.487711 57.88818359 119.29614258 C56.82277344 119.95936523 55.75736328 120.62258789 54.65966797 121.3059082 C53.50654381 122.03812639 52.35355215 122.77055327 51.20068359 123.50317383 C50.01179258 124.2482122 48.82233426 124.99234601 47.63232422 125.7355957 C44.14711018 127.9164323 40.67331754 130.11486113 37.20068359 132.31567383 C35.52375452 133.37451193 33.84669052 134.4331364 32.16943359 135.49145508 C29.93362742 136.90353051 27.69871216 138.31692558 25.46630859 139.734375 C17.6319091 144.70165742 9.72039648 149.54233213 1.81396484 154.39379883 C-4.58512595 158.32477606 -10.9598688 162.28928663 -17.29931641 166.31567383 C-24.47847761 170.86835137 -31.68369682 175.37830147 -38.91333008 179.8503418 C-40.07613843 180.57030604 -41.23810349 181.29163428 -42.39916992 182.0144043 C-44.02754095 183.02756046 -45.65946414 184.03500059 -47.29150391 185.04223633 C-48.23364746 185.62569824 -49.17579102 186.20916016 -50.14648438 186.81030273 C-52.64714854 188.22932494 -55.10538062 189.3216939 -57.79931641 190.31567383 C-59.29897494 180.77073179 -60.57777483 170.72059771 -57.79931641 161.31567383 C-52.73859081 154.62201073 -44.60576371 151.41691555 -37.17724609 147.96069336 C-31.82292338 145.35318928 -26.91601989 142.11187699 -21.92431641 138.87817383 C-19.93601945 137.6292518 -17.9450998 136.38449597 -15.95166016 135.14379883 C-14.94989746 134.51924805 -13.94813477 133.89469727 -12.91601562 133.2512207 C-6.35393093 129.1760047 0.23306887 125.14118637 6.81665039 121.10083008 C14.1393861 116.60099158 21.41750438 112.03626091 28.671875 107.42724609 C35.77173309 102.92785376 42.96774298 98.59705572 50.20068359 94.31567383 C47.82479506 89.95312082 44.88541418 86.53680662 41.51318359 82.94067383 C40.98007568 82.3713916 40.44696777 81.80210938 39.89770508 81.21557617 C34.10416771 74.56250987 34.10416771 74.56250987 27.20068359 69.31567383 C23.3005736 69.75922382 20.65749231 71.03015663 17.37646484 73.13208008 C16.44382812 73.72311523 15.51119141 74.31415039 14.55029297 74.9230957 C13.54804688 75.56827148 12.54580078 76.21344727 11.51318359 76.87817383 C9.34322368 78.25544221 7.17262901 79.63171091 5.00146484 81.00708008 C4.16266281 81.54034409 4.16266281 81.54034409 3.30691528 82.0843811 C-2.68860394 85.8930985 -8.74261895 89.60519874 -14.79931641 93.31567383 C-23.60805966 98.72600885 -32.40208632 104.15886979 -41.17431641 109.62817383 C-42.18494141 110.2565918 -43.19556641 110.88500977 -44.23681641 111.5324707 C-45.17267578 112.11706055 -46.10853516 112.70165039 -47.07275391 113.30395508 C-47.89179199 113.81482666 -48.71083008 114.32569824 -49.5546875 114.85205078 C-51.83067783 116.29178148 -51.83067783 116.29178148 -53.96972656 118.00390625 C-55.79931641 119.31567383 -55.79931641 119.31567383 -57.79931641 119.31567383 C-58.04819922 115.3147869 -58.22868075 111.31693718 -58.34863281 107.31005859 C-58.39865679 105.9505361 -58.46671315 104.5915447 -58.55371094 103.23388672 C-59.25276336 92.0367117 -59.25276336 92.0367117 -55.8605957 88.02001953 C-53.26087919 86.17420311 -50.65284639 84.73369945 -47.79931641 83.31567383 C-46.23138432 82.36444676 -44.66987413 81.40253463 -43.11572266 80.42895508 C-41.53291225 79.49227055 -39.94822223 78.55875605 -38.36181641 77.62817383 C-28.38642215 71.7103755 -18.57795953 65.5516992 -8.79931641 59.31567383 C-7.58853958 58.5458898 -6.37761595 57.7763366 -5.16650391 57.00708008 C-2.7093765 55.44545307 -0.25349173 53.88193403 2.20068359 52.31567383 C-2.20541782 48.32661082 -7.04247407 46.16798242 -12.42431641 43.81567383 C-13.76139648 43.22520264 -13.76139648 43.22520264 -15.12548828 42.62280273 C-26.12719511 36.77582444 -26.12719511 36.77582444 -37.79931641 36.31567383 C-39.24721491 37.09959723 -40.66555726 37.93953784 -42.05712891 38.81958008 C-43.24242187 39.55917969 -43.24242187 39.55917969 -44.45166016 40.3137207 C-45.26763672 40.82999023 -46.08361328 41.34625977 -46.92431641 41.87817383 C-48.5493866 42.90433317 -50.1768769 43.92667314 -51.80712891 44.94458008 C-52.52529785 45.39905518 -53.2434668 45.85353027 -53.98339844 46.32177734 C-55.79931641 47.31567383 -55.79931641 47.31567383 -57.79931641 47.31567383 C-58.29431641 38.40567383 -58.29431641 38.40567383 -58.79931641 29.31567383 C-62.83356896 28.6432984 -66.006541 28.19185835 -69.97851562 28.20214844 C-71.44936111 28.20226173 -71.44936111 28.20226173 -72.94992065 28.20237732 C-74.51119186 28.21011925 -74.51119186 28.21011925 -76.10400391 28.21801758 C-77.18312042 28.21943253 -78.26223694 28.22084747 -79.37405396 28.2223053 C-82.80750343 28.22788539 -86.24088677 28.24043428 -89.67431641 28.25317383 C-92.0076488 28.2581914 -94.34098221 28.26275386 -96.67431641 28.2668457 C-102.38267507 28.27784831 -108.09098454 28.29509927 -113.79931641 28.31567383 C-113.79931641 34.58567383 -113.79931641 40.85567383 -113.79931641 47.31567383 C-120.54931641 45.06567383 -120.54931641 45.06567383 -123.88525391 42.93286133 C-124.9390625 42.26577148 -124.9390625 42.26577148 -126.01416016 41.58520508 C-126.72701172 41.12500977 -127.43986328 40.66481445 -128.17431641 40.19067383 C-128.91037109 39.72274414 -129.64642578 39.25481445 -130.40478516 38.77270508 C-132.20661718 37.6260847 -134.00348072 36.47166307 -135.79931641 35.31567383 C-134.79931641 32.31567383 -134.79931641 32.31567383 -132.83178711 31.09228516 C-131.97157959 30.69807373 -131.11137207 30.3038623 -130.22509766 29.89770508 C-128.77611084 29.22916504 -128.77611084 29.22916504 -127.29785156 28.54711914 C-126.24645996 28.07886719 -125.19506836 27.61061523 -124.11181641 27.12817383 C-123.02690918 26.64058594 -121.94200195 26.15299805 -120.82421875 25.65063477 C-98.60558756 15.80656923 -75.60390268 8.63460241 -51.73681641 4.00317383 C-50.97812256 3.85589844 -50.21942871 3.70862305 -49.43774414 3.55688477 C-46.89714863 3.09598863 -44.35286676 2.6986186 -41.79931641 2.31567383 C-40.11854004 2.04968384 -40.11854004 2.04968384 -38.40380859 1.77832031 C-25.62880702 -0.00197171 -12.88151668 -0.02228065 0 0 Z " fill="#014AD6" transform="translate(295.79931640625,-0.315673828125)"/>
<path d="M0 0 C1.35626088 -0.00128164 1.35626088 -0.00128164 2.73992097 -0.00258917 C5.78784592 -0.00424416 8.83571655 0.00127773 11.88363647 0.00672913 C14.06124368 0.00701102 16.23885098 0.00685322 18.41645813 0.00628662 C24.34384488 0.00599873 30.27121155 0.0118941 36.19859362 0.01886058 C42.38725719 0.02509552 48.57592118 0.02569803 54.7645874 0.02688599 C65.82343576 0.02982174 76.88227577 0.03705031 87.94112031 0.0465287 C101.95526523 0.05847654 115.969409 0.06465622 129.98355794 0.06993091 C157.44553589 0.08039436 184.90750558 0.09799301 212.36947632 0.12025452 C211.59113434 1.54299637 210.8100828 2.96425607 210.02792358 4.38490295 C209.59327286 5.17652832 209.15862213 5.96815369 208.71080017 6.7837677 C206.78502097 10.13833245 204.58933177 13.25185851 202.30697632 16.37025452 C201.88609741 16.95548889 201.46521851 17.54072327 201.03158569 18.14369202 C199.18652176 20.69531531 197.32101326 23.17874125 195.31088257 25.60462952 C193.40124788 28.07908573 191.9226698 30.64810323 190.40609741 33.37513733 C180.44303958 50.14761434 162.95698219 64.74546656 147.36947632 76.12025452 C146.80696167 76.53823303 146.24444702 76.95621155 145.66488647 77.38685608 C136.5520782 84.15459001 127.05993155 90.21892427 117.36947632 96.12025452 C116.73364624 96.51100159 116.09781616 96.90174866 115.44271851 97.30433655 C106.274464 102.93815565 96.99798164 108.30829983 87.36947632 113.12025452 C86.66854858 113.47055725 85.96762085 113.82085999 85.24545288 114.18177795 C65.67193135 123.80002496 44.68708245 130.75269834 23.43197632 135.55775452 C22.45349731 135.7803595 21.47501831 136.00296448 20.46688843 136.23231506 C1.19173683 140.30634198 -17.93982337 141.63497351 -37.6078186 141.56629944 C-41.29759887 141.55780156 -44.985817 141.5866739 -48.67544556 141.61830139 C-115.21265614 141.8141575 -187.62720139 116.80262301 -237.63052368 72.12025452 C-238.54446899 71.32748108 -239.45841431 70.53470764 -240.40005493 69.71791077 C-244.92310129 65.75092108 -249.04159714 61.6822449 -252.91958618 57.08509827 C-254.73830037 54.99648357 -256.65548636 53.06123947 -258.63052368 51.12025452 C-265.52489207 44.30543653 -271.81193701 36.87333234 -277.63052368 29.12025452 C-277.63052368 28.79025452 -277.63052368 28.46025452 -277.63052368 28.12025452 C-276.56282084 28.12708409 -275.49511801 28.13391367 -274.39506054 28.1409502 C-248.29847629 28.30485857 -222.20245809 28.39264138 -196.10534954 28.40266132 C-183.48434568 28.40923166 -170.86427781 28.43966416 -158.24356079 28.5282135 C-147.23076742 28.60541867 -136.21895461 28.63587468 -125.20589954 28.6124379 C-119.38538855 28.60162459 -113.56694673 28.61269142 -107.74677086 28.67994118 C-72.73882199 29.14218222 -72.73882199 29.14218222 -41.07542801 15.64515495 C-37.51594405 13.425085 -33.77290925 11.72700548 -29.93911743 10.04212952 C-28.77187134 9.50201233 -27.60462524 8.96189514 -26.40200806 8.40541077 C-25.30179321 7.8988092 -24.20157837 7.39220764 -23.06802368 6.87025452 C-20.71246682 5.78190353 -18.35699326 4.69337223 -16.00161743 3.60462952 C-14.51552979 2.91965393 -14.51552979 2.91965393 -12.99942017 2.22084045 C-8.481151 0.12165903 -4.96484815 -0.01693275 0 0 Z " fill="#249201" transform="translate(342.6305236816406,458.87974548339844)"/>
<path d="M0 0 C1.11523159 3.34569478 0.95986084 3.80900754 -0.265625 6.9296875 C-0.57314697 7.71480713 -0.88066895 8.49992676 -1.19750977 9.30883789 C-1.54483154 10.15567139 -1.89215332 11.00250488 -2.25 11.875 C-2.60698975 12.75470459 -2.96397949 13.63440918 -3.33178711 14.54077148 C-18.9013151 51.95065755 -18.9013151 51.95065755 -27 56 C-29.82532505 56.06765492 -32.62443898 56.07259192 -35.44883728 56.03277588 C-36.77652275 56.02029898 -36.77652275 56.02029898 -38.13103014 56.00757003 C-40.07904431 55.98868555 -42.0270368 55.96746094 -43.9750042 55.9442482 C-48.255033 55.89330975 -52.53514749 55.85346729 -56.81528294 55.81265783 C-59.12299522 55.79047671 -61.43070165 55.76767929 -63.73840225 55.74431467 C-72.24280187 55.65886147 -80.74717672 55.59447167 -89.25184631 55.54290771 C-90.48701695 55.53541386 -91.72218758 55.52792 -92.99478763 55.52019906 C-98.0959478 55.48973121 -103.19711214 55.46006546 -108.2982806 55.43101931 C-122.74993809 55.34808883 -137.20069324 55.24439594 -151.65161133 55.07421875 C-163.12927861 54.93918705 -174.60624233 54.85147633 -186.08466822 54.8175199 C-192.15013004 54.79786812 -198.21340089 54.75568141 -204.27812004 54.65607452 C-240.15166706 53.8013234 -240.15166706 53.8013234 -272.58568573 67.4710083 C-276.12577762 69.71295798 -279.86094619 71.39962482 -283.69140625 73.078125 C-285.44227539 73.88830078 -285.44227539 73.88830078 -287.22851562 74.71484375 C-288.32873047 75.22144531 -289.42894531 75.72804688 -290.5625 76.25 C-292.91805686 77.33835099 -295.27353042 78.42688228 -297.62890625 79.515625 C-299.1149939 80.20060059 -299.1149939 80.20060059 -300.63110352 80.89941406 C-302.09654925 81.58025807 -303.55470979 82.27735489 -305 83 C-307.76500327 83.12757454 -310.50652753 83.19469537 -313.27297974 83.21878052 C-314.13884071 83.23006859 -315.00470169 83.24135666 -315.89680088 83.25298679 C-318.81544158 83.2895904 -321.73410864 83.3189303 -324.65283203 83.34814453 C-326.73864592 83.37244439 -328.82445622 83.39705393 -330.91026306 83.42195129 C-349.96130836 83.64226035 -369.01324419 83.79802191 -388.06501961 83.93959236 C-402.15221915 84.04497753 -416.23847607 84.17991139 -430.32499993 84.3538295 C-440.22471011 84.47350481 -450.12436239 84.55864346 -460.02461326 84.61843383 C-465.93979945 84.65514947 -471.85391707 84.70734634 -477.7685585 84.79693985 C-483.33534519 84.88060458 -488.90082445 84.92153374 -494.46821785 84.92986107 C-496.50972509 84.94034944 -498.55122125 84.96628566 -500.59230995 85.00893211 C-516.00992253 85.3180809 -516.00992253 85.3180809 -520.94582748 82.0489006 C-522.99416828 79.78922719 -524.50668861 77.64905652 -526 75 C-526.81738823 73.88850448 -527.64215623 72.78237125 -528.4765625 71.68359375 C-533.75707945 63.70521269 -538.71412975 55.56114621 -543.5625 47.3125 C-544.1827002 46.26054443 -544.80290039 45.20858887 -545.44189453 44.12475586 C-546.0192334 43.13096924 -546.59657227 42.13718262 -547.19140625 41.11328125 C-547.70904541 40.22423096 -548.22668457 39.33518066 -548.76000977 38.41918945 C-549.88366805 36.22696067 -550.45616784 34.37972969 -551 32 C-549.7524613 32.01106152 -548.5049226 32.02212303 -547.2195797 32.03351974 C-517.51544187 32.29417384 -487.81160219 32.49166275 -458.10659876 32.61278395 C-454.43971618 32.62779001 -450.77283602 32.64332212 -447.10595703 32.65917969 C-446.37603663 32.66232741 -445.64611622 32.66547514 -444.89407702 32.66871825 C-433.12008381 32.72074324 -421.3468034 32.81524942 -409.57323115 32.92583355 C-397.4662166 33.03858968 -385.35957182 33.1048175 -373.25205386 33.12906194 C-366.46211767 33.14396118 -359.67365897 33.17937675 -352.88425827 33.26876068 C-346.47662216 33.350997 -340.07123784 33.37518436 -333.66312408 33.35729218 C-331.32758157 33.36055904 -328.99195362 33.38396419 -326.6568718 33.4304657 C-310.21613633 33.74145555 -299.27763038 30.39126412 -285.42639852 21.51266909 C-281.55934713 19.10186598 -277.52854842 17.02049564 -273.484375 14.92578125 C-272.01507121 14.15013668 -270.54624522 13.37358561 -269.078125 12.59570312 C-267.63542349 11.83462249 -266.19271509 11.0735549 -264.75 10.3125 C-263.22909942 9.50859076 -261.70826608 8.70455428 -260.1875 7.90039062 C-246.89593336 0.87551749 -246.89593336 0.87551749 -242.8964138 0.8613348 C-242.032033 0.85586036 -241.16765219 0.85038591 -240.27707803 0.84474558 C-239.32183949 0.84376747 -238.36660094 0.84278936 -237.38241577 0.84178162 C-236.37206949 0.83684364 -235.36172321 0.83190566 -234.32076037 0.82681805 C-230.91354901 0.81138155 -227.50635658 0.80306582 -224.09912109 0.79467773 C-221.66535778 0.78510404 -219.23159616 0.77509427 -216.7978363 0.76467896 C-211.54694704 0.74319395 -206.29605635 0.72476038 -201.04514694 0.70907402 C-193.45315649 0.68638877 -185.86119405 0.6582441 -178.26922734 0.62875474 C-165.95260923 0.58106232 -153.63597968 0.53780261 -141.31933594 0.49731445 C-129.35285552 0.45796792 -117.38638528 0.41654372 -105.41992188 0.37231445 C-104.68265941 0.36959018 -103.94539695 0.36686591 -103.18579321 0.36405908 C-99.48726875 0.35037974 -95.78874444 0.33665944 -92.09022021 0.32291877 C-61.3935012 0.20892807 -30.69676067 0.10219805 0 0 Z " fill="#249201" transform="translate(582,404)"/>
<path d="M0 0 C7.0632619 0.10194942 14.12613542 0.12127385 21.19002835 0.13715229 C33.77962682 0.16754307 46.36793135 0.2600152 58.95683012 0.39338886 C71.16151842 0.52255483 83.36585108 0.6213248 95.57108793 0.68049823 C96.32761437 0.68417636 97.08414081 0.68785449 97.86359229 0.69164408 C101.66012268 0.709919 105.45665553 0.72760986 109.25319001 0.74501073 C140.58413563 0.88936266 171.91347201 1.13630932 203.24320707 1.4495412 C202.92688473 3.05677524 202.60915615 4.66373255 202.29082975 6.27057087 C202.11404471 7.1654745 201.93725967 8.06037813 201.75511751 8.98240005 C201.22136306 11.55481793 200.56691748 14.04374458 199.77055082 16.54719745 C199.51080473 17.36768573 199.25105863 18.18817402 198.98344145 19.03352558 C198.58608793 20.26039081 198.58608793 20.26039081 198.18070707 21.5120412 C197.91193754 22.36475605 197.64316801 23.21747089 197.36625395 24.09602558 C195.37981604 30.31293223 195.37981604 30.31293223 194.24320707 31.4495412 C191.13037309 31.52890117 188.04015078 31.54194257 184.92756376 31.51355182 C183.93712218 31.50861188 182.9466806 31.50367194 181.92622564 31.4985823 C179.74268711 31.48713977 177.55915979 31.47339417 175.37564764 31.45770656 C170.57965347 31.42334917 165.78362211 31.3999472 160.98756776 31.37571978 C158.40142398 31.36252142 155.81528315 31.34873425 153.22914538 31.33440637 C143.70225815 31.28195612 134.17546455 31.25225556 124.64844999 31.23611652 C123.95876265 31.23491832 123.26907531 31.23372012 122.55848836 31.23248561 C116.14761104 31.2215017 109.73673183 31.21202134 103.32585082 31.20347928 C98.92427799 31.19753499 94.52270708 31.19075879 90.12113676 31.18318378 C89.39010279 31.18193655 88.65906883 31.18068932 87.90588232 31.17940429 C76.12567536 31.1579031 64.34616343 31.0900132 52.56626128 31.00534298 C40.44206873 30.9193596 28.31855489 30.88775047 16.19406602 30.90393966 C9.39883353 30.9114415 2.60556073 30.8945894 -4.18925371 30.81468975 C-42.76353137 29.50168296 -42.76353137 29.50168296 -77.1575841 44.63149654 C-81.80392655 47.8814309 -86.86589085 50.38651303 -91.88179293 53.0120412 C-93.59499824 53.94669839 -95.30637466 54.88472922 -97.01460543 55.82844745 C-98.06865572 56.40961323 -98.06865572 56.40961323 -99.14399996 57.00251972 C-100.66133889 57.84285497 -102.16340197 58.71507545 -103.61565575 59.66346341 C-109.58678908 63.37261504 -114.1899285 64.16000295 -121.14023104 64.05081379 C-122.65247127 64.05722197 -122.65247127 64.05722197 -124.1952618 64.06375962 C-127.55355365 64.07195681 -130.91058019 64.04455754 -134.26875582 64.01716816 C-136.68384545 64.01575699 -139.09893722 64.01655101 -141.5140256 64.01938068 C-146.70326164 64.02051709 -151.8922147 64.00639046 -157.08136454 63.97819149 C-164.58384529 63.93744805 -172.08617428 63.92452325 -179.58875366 63.91825153 C-191.76293587 63.90732527 -203.93694997 63.8740966 -216.11104098 63.82673847 C-227.93264704 63.78079953 -239.75420735 63.7454289 -251.57588473 63.72419941 C-252.30533413 63.72288579 -253.03478354 63.72157217 -253.78633747 63.72021875 C-257.44599893 63.71369327 -261.10566071 63.7073748 -264.76532271 63.70115923 C-295.0959331 63.64937823 -325.42633962 63.56098534 -355.75679293 63.4495412 C-357.04788353 60.88227293 -358.33736433 58.31421723 -359.62593355 55.74568378 C-359.98995272 55.0222604 -360.35397188 54.29883701 -360.72902193 53.5534917 C-363.10535216 48.81273994 -365.31403364 44.07488774 -367.25679293 39.1370412 C-367.74148043 37.92403339 -368.22616793 36.71102558 -368.72554293 35.46125995 C-369.75679293 32.4495412 -369.75679293 32.4495412 -369.75679293 29.4495412 C-367.79190055 29.45978557 -367.79190055 29.45978557 -365.78731337 29.47023689 C-334.57492115 29.63003309 -303.36312883 29.72165541 -272.15034882 29.73120822 C-268.29463524 29.73244687 -264.43892212 29.73425152 -260.58320894 29.73640644 C-259.8157221 29.73682586 -259.04823526 29.73724528 -258.25749123 29.73767741 C-245.88882336 29.7457812 -233.5207653 29.79956049 -221.15231775 29.87072214 C-208.42697958 29.94290149 -195.70224231 29.96483247 -182.97671768 29.94172459 C-175.8429486 29.93016958 -168.71073759 29.94090969 -161.57724848 30.00922786 C-120.66046083 30.96563744 -120.66046083 30.96563744 -83.75679293 15.4495412 C-57.13985628 -1.33734266 -30.71583907 -0.45546019 0 0 Z " fill="#FCFDFC" transform="translate(387.7567929290235,373.55045879632235)"/>
<path d="M0 0 C0.66 0 1.32 0 2 0 C0.94915771 3.31419492 -0.2009126 6.44818965 -1.625 9.625 C-3.25153126 13.01000408 -3.25153126 13.01000408 -3 17 C-0.8665561 18.86546849 -0.8665561 18.86546849 2.01953125 20.46875 C3.09460937 21.11585938 4.1696875 21.76296875 5.27734375 22.4296875 C6.45567834 23.11987845 7.63406501 23.80998049 8.8125 24.5 C10.01660484 25.21971739 11.21972412 25.94108611 12.421875 26.6640625 C14.83249713 28.11308762 17.24638821 29.55640761 19.66259766 30.99609375 C23.98815057 33.59332406 28.2494028 36.28249026 32.5 39 C39.95566368 43.73954967 47.47003505 48.37953708 55 53 C63.28467447 58.08356034 71.5373526 63.21007712 79.74047852 68.42407227 C85.317153 71.95970406 90.93271503 75.42784985 96.56884766 78.86791992 C98.80767219 80.24337402 101.03795785 81.63282825 103.25927734 83.03637695 C108.44016435 86.29931358 113.53891345 89.33108058 119.10546875 91.890625 C129.8722398 97.15503812 129.8722398 97.15503812 133 102 C135.32224205 111.4550371 134.2348243 121.44530954 133 131 C129.8541751 129.80881628 127.02754846 128.52574437 124.19921875 126.70703125 C123.4820166 126.24949463 122.76481445 125.79195801 122.02587891 125.32055664 C121.25421387 124.82289795 120.48254883 124.32523926 119.6875 123.8125 C117.98086062 122.72334406 116.27380966 121.63483283 114.56640625 120.546875 C113.66293457 119.97001953 112.75946289 119.39316406 111.82861328 118.79882812 C106.94446633 115.69280407 102.03472871 112.62786882 97.125 109.5625 C96.10946045 108.92803955 95.0939209 108.2935791 94.04760742 107.63989258 C86.68463922 103.04323232 79.30716596 98.47037768 71.9230957 93.90771484 C65.371933 89.85701001 58.84020056 85.77588235 52.3125 81.6875 C42.70850345 75.67321441 33.06437313 69.72650875 23.40673828 63.79882812 C15.85935087 59.16026999 8.34886468 54.46715682 0.87182617 49.71606445 C-0.18814575 49.04256958 -0.18814575 49.04256958 -1.26953125 48.35546875 C-1.87385986 47.97028076 -2.47818848 47.58509277 -3.10083008 47.18823242 C-5.38217689 45.76088765 -7.68918931 44.37902015 -10 43 C-13.35934827 65.74657624 -13.35934827 65.74657624 -8.06347656 87.15625 C-2.73877149 92.16184819 3.78209542 94.79685284 10.49658203 97.48339844 C16.48692033 100.07656788 21.83016684 103.67267281 27.3125 107.1875 C29.50394888 108.53931762 31.69791296 109.88706741 33.89453125 111.23046875 C39.87396576 114.91289716 45.81205881 118.65729496 51.73950195 122.42260742 C58.4544218 126.67817983 65.2241768 130.84225286 72 135 C80.39125265 140.14932948 88.75325169 145.3383658 97.06347656 150.61743164 C103.96307824 154.99510479 110.91506821 159.28643446 117.88598633 163.54956055 C119.5204785 164.55472782 121.14619902 165.57434168 122.76147461 166.61010742 C124.94467889 168.01649658 124.94467889 168.01649658 127.14672852 169.0559082 C129.26461578 170.20876345 130.55458133 171.06116873 132 173 C132.84591996 177.13735243 132.66087833 181.11249654 132.4375 185.3125 C132.40591797 186.43462891 132.37433594 187.55675781 132.34179688 188.71289062 C132.25943395 191.47793172 132.14448575 194.23762302 132 197 C123.14077138 198.04389242 118.20452861 194.71826735 110.9375 189.9375 C109.7911523 189.20446231 108.64350278 188.47345686 107.49462891 187.74438477 C105.13604982 186.24419216 102.78446308 184.73389562 100.43798828 183.21484375 C95.29194801 179.88930514 90.07885184 176.67145441 84.875 173.4375 C82.89004851 172.1962339 80.90567314 170.95404605 78.921875 169.7109375 C77.94412109 169.09831055 76.96636719 168.48568359 75.95898438 167.85449219 C73.98632812 166.61816406 72.01367188 165.38183594 70.04101562 164.14550781 C58.617905 156.98817976 47.17544477 149.86539574 35.6875 142.8125 C27.84890546 137.999195 20.02714596 133.1620838 12.25 128.25 C11.49420654 127.77280518 10.73841309 127.29561035 9.9597168 126.80395508 C5.93677979 124.25454373 1.95133247 121.6590728 -2 119 C6.60611875 147.34956764 24.42860334 175.05103327 47.4453125 193.89453125 C48.28835937 194.58933594 49.13140625 195.28414062 50 196 C50 196.33 50 196.66 50 197 C0.995 197.495 0.995 197.495 -49 198 C-49.0825 188.326875 -49.165 178.65375 -49.25 168.6875 C-49.28641602 165.69647217 -49.32283203 162.70544434 -49.36035156 159.6237793 C-49.67184494 115.3154166 -38.66106757 72.64289413 -19 33 C-18.60280762 32.19852539 -18.20561523 31.39705078 -17.79638672 30.57128906 C-13.74043886 22.48016645 -9.29976622 14.64873096 -4.5625 6.9375 C-4.13702881 6.23947266 -3.71155762 5.54144531 -3.27319336 4.82226562 C-2.2393369 3.17746547 -1.12677373 1.58259524 0 0 Z " fill="#024BD6" transform="translate(49,131)"/>
<path d="M0 0 C1.35626088 -0.00128164 1.35626088 -0.00128164 2.73992097 -0.00258917 C5.78784592 -0.00424416 8.83571655 0.00127773 11.88363647 0.00672913 C14.06124368 0.00701102 16.23885098 0.00685322 18.41645813 0.00628662 C24.34384488 0.00599873 30.27121155 0.0118941 36.19859362 0.01886058 C42.38725719 0.02509552 48.57592118 0.02569803 54.7645874 0.02688599 C65.82343576 0.02982174 76.88227577 0.03705031 87.94112031 0.0465287 C101.95526523 0.05847654 115.969409 0.06465622 129.98355794 0.06993091 C157.44553589 0.08039436 184.90750558 0.09799301 212.36947632 0.12025452 C211.58951238 1.54437618 210.80703565 2.9671218 210.02352905 4.38929749 C209.37032936 5.57795914 209.37032936 5.57795914 208.70393372 6.79063416 C206.81172325 10.09394833 204.66971367 13.16969133 202.43197632 16.24525452 C202.02785522 16.81373108 201.62373413 17.38220764 201.20736694 17.96791077 C200.40431174 19.08333547 199.58816301 20.18949636 198.75681716 21.28399807 C197.84419903 22.49192108 196.95360436 23.71685819 196.0878765 24.95881838 C193.39417161 28.53784253 192.1063924 29.95651355 187.59875202 30.95810032 C186.15745528 30.97649504 184.71534411 30.95660925 183.27482605 30.90579224 C182.47612286 30.90597884 181.67741967 30.90616545 180.85451335 30.90635771 C178.18473183 30.89883113 175.51836277 30.84148701 172.84921265 30.78456116 C170.93159189 30.76952288 169.01394292 30.75777604 167.09628296 30.74906921 C162.96586885 30.72443353 158.83640187 30.67881225 154.7063694 30.61764717 C148.14972082 30.52304523 141.59363275 30.48965532 135.03639221 30.46704102 C116.3897436 30.39347678 97.74422617 30.23946157 79.09872437 30.02137756 C68.80022328 29.90146507 58.50260083 29.83347089 48.20340174 29.81867498 C42.76584632 29.80833858 37.33143962 29.77168773 31.89478493 29.66879463 C7.70615131 29.22338252 -11.30757223 29.35030088 -31.85929298 43.29881096 C-36.63347666 46.43673308 -41.70724041 49.01861336 -46.75552368 51.68275452 C-48.46837486 52.61806052 -50.17967739 53.55621772 -51.88833618 54.49916077 C-52.94238647 55.08032654 -52.94238647 55.08032654 -54.01773071 55.67323303 C-56.52643323 56.983372 -56.52643323 56.983372 -58.23884296 58.33145428 C-65.88548153 63.54524207 -74.27553962 62.83918865 -83.14053345 62.79896545 C-84.91212209 62.80902671 -86.68369991 62.82117789 -88.45526123 62.83525085 C-93.24657745 62.86648015 -98.03738995 62.86599729 -102.82878232 62.85774517 C-106.83486725 62.85357512 -110.8408543 62.86457234 -114.84692234 62.87538934 C-124.29855113 62.90049512 -133.74992979 62.89942879 -143.2015686 62.88197327 C-152.94204462 62.86443965 -162.68170285 62.89087124 -172.42205769 62.93893981 C-180.79772264 62.97873337 -189.17312952 62.99134812 -197.54888386 62.98222566 C-202.54590267 62.97704761 -207.54237233 62.98205817 -212.53930855 63.01319122 C-217.23717736 63.04126802 -221.93380846 63.03531265 -226.63164139 63.00347519 C-228.3521129 62.99743166 -230.07267455 63.00324153 -231.79305458 63.0219841 C-246.39650187 63.16919428 -246.39650187 63.16919428 -251.57398987 58.70014954 C-252.62781474 57.53762711 -253.65315201 56.34775192 -254.63052368 55.12025452 C-255.38462524 54.40998108 -256.13872681 53.69970764 -256.91567993 52.96791077 C-277.63052368 32.16201276 -277.63052368 32.16201276 -277.63052368 28.12025452 C-276.56282084 28.12708409 -275.49511801 28.13391367 -274.39506054 28.1409502 C-248.29847629 28.30485857 -222.20245809 28.39264138 -196.10534954 28.40266132 C-183.48434568 28.40923166 -170.86427781 28.43966416 -158.24356079 28.5282135 C-147.23076742 28.60541867 -136.21895461 28.63587468 -125.20589954 28.6124379 C-119.38538855 28.60162459 -113.56694673 28.61269142 -107.74677086 28.67994118 C-72.73882199 29.14218222 -72.73882199 29.14218222 -41.07542801 15.64515495 C-37.51594405 13.425085 -33.77290925 11.72700548 -29.93911743 10.04212952 C-28.77187134 9.50201233 -27.60462524 8.96189514 -26.40200806 8.40541077 C-25.30179321 7.8988092 -24.20157837 7.39220764 -23.06802368 6.87025452 C-20.71246682 5.78190353 -18.35699326 4.69337223 -16.00161743 3.60462952 C-14.51552979 2.91965393 -14.51552979 2.91965393 -12.99942017 2.22084045 C-8.481151 0.12165903 -4.96484815 -0.01693275 0 0 Z " fill="#FCFDFC" transform="translate(342.6305236816406,458.87974548339844)"/>
<path d="M0 0 C3.83673979 0.06356967 7.67360514 0.06846845 11.51079035 0.08025408 C18.73920172 0.11103263 25.96605597 0.19266716 33.19378912 0.29374897 C41.4381768 0.40648495 49.68264866 0.46074347 57.92761827 0.51070333 C74.85303475 0.61454022 91.77694627 0.7898209 108.70118952 1.01393938 C108.70118952 1.67393938 108.70118952 2.33393938 108.70118952 3.01393938 C106.33998896 4.74074136 103.98277279 6.32818442 101.51368952 7.88893938 C100.75410944 8.37290178 99.99452936 8.85686419 99.21193171 9.35549212 C62.5830896 32.45419434 23.661582 48.50805665 -19.29881048 55.01393938 C-20.36486517 55.19199114 -21.43091986 55.3700429 -22.52927923 55.55349016 C-34.89430559 57.39540503 -47.26619256 57.38615168 -59.74802923 57.38454485 C-63.4998058 57.38888272 -67.25036856 57.42520875 -71.00193548 57.46315813 C-110.74960587 57.64816597 -154.83919937 49.89435179 -190.29881048 31.01393938 C-190.62881048 30.35393938 -190.95881048 29.69393938 -191.29881048 29.01393938 C-189.48313574 29.05177286 -189.48313574 29.05177286 -187.6307807 29.09037066 C-176.04574502 29.32009352 -164.46269612 29.4547304 -152.87545156 29.50359488 C-146.92220785 29.53155975 -140.97284966 29.58942766 -135.02097845 29.72365618 C-107.47295109 30.32090981 -84.69932548 29.60291537 -60.43259954 15.65432024 C-58.43889575 14.51414222 -56.44478532 13.37482194 -54.44757223 12.24079943 C-52.95680732 11.38963019 -51.47249428 10.52709986 -49.99346304 9.65570116 C-33.69969994 0.2684814 -18.28465858 -0.35545341 0 0 Z " fill="#FCFDFC" transform="translate(365.29881048202515,542.9860606193542)"/>
<path d="M0 0 C0.66 0 1.32 0 2 0 C2 0.66 2 1.32 2 2 C2.65613281 2.22429687 3.31226562 2.44859375 3.98828125 2.6796875 C7.996175 4.43671485 11.51825384 6.75314974 15.1875 9.125 C23.07468731 14.1673218 31.01854875 19.10831219 39 24 C47.39575488 29.1514153 55.75935034 34.34700694 64.07666016 39.62402344 C69.07826653 42.79440521 74.09510121 45.93848703 79.13476562 49.0480957 C80.9452444 50.17254755 82.7475822 51.31022654 84.54101562 52.46166992 C88.35425917 54.88955489 91.92785845 57.10405445 96.21484375 58.578125 C100.28239863 60.18571455 102.17637794 61.67768916 105 65 C105.71289062 68.27734375 105.71289062 68.27734375 105.78125 71.9375 C105.80985107 73.2471875 105.83845215 74.556875 105.86791992 75.90625 C105.82910189 81.95209014 105.49035609 87.97413298 105 94 C101.06745618 92.80233749 97.78107752 91.44292809 94.33984375 89.19921875 C93.47504395 88.64113525 92.61024414 88.08305176 91.71923828 87.50805664 C90.80126465 86.90727295 89.88329102 86.30648926 88.9375 85.6875 C86.95515641 84.40772375 84.97206565 83.12910421 82.98828125 81.8515625 C81.98619629 81.20477539 80.98411133 80.55798828 79.95166016 79.89160156 C75.54044666 77.06463033 71.08629287 74.30952154 66.625 71.5625 C59.06679514 66.90114322 51.52692962 62.21170151 44 57.5 C35.67287328 52.28873173 27.33251599 47.0998176 18.97314453 41.94042969 C14.12295094 38.9438781 9.28627088 35.92707493 4.4609375 32.890625 C2.81641602 31.85711914 2.81641602 31.85711914 1.13867188 30.80273438 C-0.9997321 29.45775378 -3.13651434 28.1101905 -5.27148438 26.75976562 C-6.23634766 26.15326172 -7.20121094 25.54675781 -8.1953125 24.921875 C-9.05141113 24.38143555 -9.90750977 23.84099609 -10.78955078 23.28417969 C-13.05151872 21.86997884 -13.05151872 21.86997884 -16 21 C-13.60336697 15.680942 -9.68240071 11.46953098 -6 7 C-5.40960938 6.27167969 -4.81921875 5.54335937 -4.2109375 4.79296875 C-2.85572435 3.15402871 -1.43394872 1.57051526 0 0 Z " fill="#044DD6" transform="translate(77,96)"/>
<path d="M0 0 C0.66281982 0.42337646 1.32563965 0.84675293 2.00854492 1.28295898 C7.7818396 4.96460495 13.56897643 8.62186314 19.38671875 12.23291016 C21.40212371 13.49321095 23.40816868 14.76856301 25.40625 16.05615234 C30.64086429 19.40826928 35.8031949 22.45650869 41.44921875 25.06640625 C53.4036379 30.91555639 53.4036379 30.91555639 57 36 C59.5602877 45.41352912 58.36449464 55.46380456 57 65 C53.87913463 63.81753318 51.07189853 62.55264902 48.26953125 60.7421875 C47.5628833 60.28996826 46.85623535 59.83774902 46.12817383 59.37182617 C45.36400146 58.87787354 44.5998291 58.3839209 43.8125 57.875 C36.02711651 52.89911449 28.18966448 48.01674591 20.3125 43.1875 C10.35868732 37.0822785 0.44299348 30.92111345 -9.4362793 24.69604492 C-10.3725415 24.10799072 -11.30880371 23.51993652 -12.2734375 22.9140625 C-13.09247559 22.3979541 -13.91151367 21.8818457 -14.75537109 21.35009766 C-16.79721455 20.12197123 -18.85280174 19.03023692 -21 18 C-21 17.34 -21 16.68 -21 16 C-19.50292969 14.62719727 -19.50292969 14.62719727 -17.421875 13.06640625 C-16.67292969 12.49986328 -15.92398438 11.93332031 -15.15234375 11.34960938 C-14.35957031 10.75986328 -13.56679687 10.17011719 -12.75 9.5625 C-11.97269531 8.97662109 -11.19539063 8.39074219 -10.39453125 7.78710938 C-8.267421 6.18541354 -6.13462609 4.5916571 -4 3 C-2.66638972 2.00036936 -1.3329748 1.00047787 0 0 Z " fill="#054DD6" transform="translate(125,54)"/>
<path d="M0 0 C1.9601094 0.0093369 3.92023055 0.01644886 5.88035583 0.0214386 C11.01474786 0.04043935 16.14842159 0.08948 21.28253174 0.1449585 C26.53135464 0.19630092 31.78029471 0.21898456 37.02929688 0.24414062 C47.31020972 0.29760582 57.59059177 0.38283407 67.87109375 0.48828125 C66.53218699 3.16609476 65.31104594 3.31151117 62.55078125 4.40625 C61.63490234 4.77008789 60.71902344 5.13392578 59.77539062 5.50878906 C58.27588867 6.0864502 58.27588867 6.0864502 56.74609375 6.67578125 C55.71291016 7.07506836 54.67972656 7.47435547 53.61523438 7.88574219 C35.4581995 14.78409413 16.96327543 19.93725549 -2.12890625 23.48828125 C-2.98194336 23.65344238 -3.83498047 23.81860352 -4.71386719 23.98876953 C-24.93463644 27.75920607 -45.65288818 26.77510142 -66.12890625 26.48828125 C-63.32794683 23.1200055 -59.53192768 21.4106441 -55.71484375 19.43359375 C-54.98576813 19.05016815 -54.2566925 18.66674255 -53.50552368 18.271698 C-51.17435371 17.04698835 -48.83931271 15.82988973 -46.50390625 14.61328125 C-44.19075824 13.40227739 -41.87844593 12.189697 -39.56655884 10.97628784 C-38.1304386 10.22318336 -36.69346775 9.47169767 -35.25546265 8.72219849 C-34.58511993 8.37188568 -33.91477722 8.02157288 -33.22412109 7.66064453 C-32.54097336 7.31440536 -31.85782562 6.9681662 -31.15397644 6.61143494 C-29.10699479 5.53799118 -29.10699479 5.53799118 -27.32319641 4.1240387 C-19.30456766 -1.53288023 -9.36453991 -0.13125869 0 0 Z " fill="#259202" transform="translate(355.12890625,573.51171875)"/>
<path d="M0 0 C0.99 0.33 1.98 0.66 3 1 C5.39254576 1.22560676 7.78928123 1.40848595 10.1875 1.5625 C12.09595703 1.68818359 12.09595703 1.68818359 14.04296875 1.81640625 C15.01878906 1.87699219 15.99460937 1.93757812 17 2 C17 2.33 17 2.66 17 3 C10.4 3 3.8 3 -3 3 C-2.01 2.01 -1.02 1.02 0 0 Z " fill="#349A15" transform="translate(292,597)"/>
</svg>
